<?xml version="1.0" encoding="UTF-8" standalone="no"?>
<svg
   aria-hidden="true"
   focusable="false"
   data-prefix="far"
   data-icon="smile"
   class="svg-inline--fa fa-smile fa-w-16"
   role="img"
   viewBox="0 0 512 512"
   version="1.1"
   id="svg4"
   sodipodi:docname="favicon.svg"
   inkscape:version="1.1 (c68e22c387, 2021-05-23)"
   width="512"
   height="512"
   xmlns:inkscape="http://www.inkscape.org/namespaces/inkscape"
   xmlns:sodipodi="http://sodipodi.sourceforge.net/DTD/sodipodi-0.dtd"
   xmlns="http://www.w3.org/2000/svg"
   xmlns:svg="http://www.w3.org/2000/svg"
   xmlns:rdf="http://www.w3.org/1999/02/22-rdf-syntax-ns#"
   xmlns:cc="http://creativecommons.org/ns#"
   xmlns:dc="http://purl.org/dc/elements/1.1/">
  <metadata
     id="metadata10">
    <rdf:RDF>
      <cc:Work
         rdf:about="">
        <dc:format>image/svg+xml</dc:format>
        <dc:type
           rdf:resource="http://purl.org/dc/dcmitype/StillImage" />
      </cc:Work>
    </rdf:RDF>
  </metadata>
  <defs
     id="defs8" />
  <sodipodi:namedview
     pagecolor="#ffffff"
     bordercolor="#666666"
     borderopacity="1"
     objecttolerance="10"
     gridtolerance="10"
     guidetolerance="10"
     inkscape:pageopacity="0"
     inkscape:pageshadow="2"
     inkscape:window-width="1920"
     inkscape:window-height="1006"
     id="namedview6"
     showgrid="false"
     inkscape:zoom="1.1462864"
     inkscape:cx="178.83838"
     inkscape:cy="291.81189"
     inkscape:window-x="1920"
     inkscape:window-y="0"
     inkscape:window-maximized="1"
     inkscape:current-layer="svg4"
     inkscape:pagecheckerboard="true"
     width="512px" />
  <path
     fill="currentColor"
     d="M 256,8 C 119,8 8,119 8,256 8,393 119,504 256,504 393,504 504,393 504,256 504,119 393,8 256,8 Z m 0,448 C 145.7,456 56,366.3 56,256 56,145.7 145.7,56 256,56 c 110.3,0 200,89.7 200,200 0,110.3 -89.7,200 -200,200 z M 176,240 c 17.7,0 32,-14.3 32,-32 0,-17.7 -14.3,-32 -32,-32 -17.7,0 -32,14.3 -32,32 0,17.7 14.3,32 32,32 z m 160,0 c 17.7,0 32,-14.3 32,-32 0,-17.7 -14.3,-32 -32,-32 -17.7,0 -32,14.3 -32,32 0,17.7 14.3,32 32,32 z m 4,72.6 c -20.8,25 -51.5,39.4 -84,39.4 -32.5,0 -63.2,-14.3 -84,-39.4 -8.5,-10.2 -23.7,-11.5 -33.8,-3.1 -10.2,8.5 -11.5,23.6 -3.1,33.8 30,36 74.1,56.6 120.9,56.6 46.8,0 90.9,-20.6 120.9,-56.6 8.5,-10.2 7.1,-25.3 -3.1,-33.8 -10.1,-8.4 -25.3,-7.1 -33.8,3.1 z"
     id="path2"
     style="fill:#ffffff" />
</svg>
